<?xml version="1.0" encoding="UTF-8"?><svg id="a" xmlns="http://www.w3.org/2000/svg" viewBox="0 0 134.43 123.15"><path d="M132.71,37.03l-52.69,86.11c16.76,0,33.53,0,50.29,0h0c1.32,0,2.4-1.08,2.4-2.4v-.23c.02-.11,0,0,0-.09h0V37.03Z" fill="#908c86" fill-rule="evenodd"/><path d="M0,99.06V4.3S.25-.41,4.84,1.5l48.34,40.45c-23.81,1.3-35.74,33.68-53.18,57.11Z" fill="#908c86" fill-rule="evenodd"/><path d="M61.12,123.15H1.75c1.77-2.91,3.55-5.83,5.33-8.74,2.66-4.37,5.33-8.74,7.99-13.12,7.98-13.11,15.9-26.29,23.96-39.35,3.11-5.03,6.56-8.84,11.71-11.87,8.51-5.01,19.35-5.51,28.08-.76,1.39.76,2.62,1.59,3.85,2.57,5.3,4.29,10.89,11.67,10.23,18.86l-.05.52-.03.27-31.69,51.62Z" fill="#908c86" fill-rule="evenodd"/><path d="M76.87,42.35c1.34-1.06,2.67-2.11,4.01-3.17,9.28-7.35,18.56-14.69,27.84-22.04,2.67-2.11,5.34-4.23,8.01-6.34,3.89-3.07,7.75-6.15,11.62-9.25,1.48-1.15,3.8-2.42,5.41-.73,1.84,1.92-.56,4.9-1.66,6.57-.84,1.38-1.68,2.77-2.52,4.15-1.77,2.92-3.53,5.83-5.3,8.75-7.55,12.46-15.09,24.93-22.64,37.39,0,0-9.04-12.09-24.77-15.34Z" fill="#908c86" fill-rule="evenodd"/></svg>